<mxfile host="app.diagrams.net" modified="2021-06-03T01:16:05.786Z" agent="5.0 (Macintosh; Intel Mac OS X 10_15_6) AppleWebKit/605.1.15 (KHTML, like Gecko) Version/14.0.3 Safari/605.1.15" etag="BnkaxOX6BIgTHeo0q2ne" version="14.7.3" type="github">
  <diagram id="d2onDuZHNwdcGHEt0VVs" name="Page-1">
    <mxGraphModel dx="1417" dy="800" grid="1" gridSize="10" guides="1" tooltips="1" connect="1" arrows="1" fold="1" page="1" pageScale="1" pageWidth="827" pageHeight="1169" math="0" shadow="0">
      <root>
        <mxCell id="0" />
        <mxCell id="1" parent="0" />
        <mxCell id="ub9YOAP1CGmZ-O2Si56E-92" value="" style="rounded=0;whiteSpace=wrap;html=1;rotation=-90;fillColor=#f8cecc;strokeColor=#b85450;" vertex="1" parent="1">
          <mxGeometry x="590" y="90" width="441.33" height="403.91" as="geometry" />
        </mxCell>
        <mxCell id="ub9YOAP1CGmZ-O2Si56E-91" value="" style="rounded=0;whiteSpace=wrap;html=1;fillColor=#fff2cc;strokeColor=#d6b656;" vertex="1" parent="1">
          <mxGeometry x="70" y="310" width="540" height="200" as="geometry" />
        </mxCell>
        <mxCell id="ub9YOAP1CGmZ-O2Si56E-90" value="" style="rounded=0;whiteSpace=wrap;html=1;fillColor=#d5e8d4;strokeColor=#82b366;" vertex="1" parent="1">
          <mxGeometry x="70" y="70" width="545" height="240" as="geometry" />
        </mxCell>
        <mxCell id="ub9YOAP1CGmZ-O2Si56E-12" value="Player Model" style="rounded=0;whiteSpace=wrap;html=1;" vertex="1" parent="1">
          <mxGeometry x="374" y="200" width="80" height="30" as="geometry" />
        </mxCell>
        <mxCell id="ub9YOAP1CGmZ-O2Si56E-14" value="Subject" style="rounded=0;whiteSpace=wrap;html=1;" vertex="1" parent="1">
          <mxGeometry x="240" y="260" width="70" height="30" as="geometry" />
        </mxCell>
        <mxCell id="ub9YOAP1CGmZ-O2Si56E-15" value="Bloom Taxonomy" style="rounded=0;whiteSpace=wrap;html=1;" vertex="1" parent="1">
          <mxGeometry x="80" y="180" width="100" height="30" as="geometry" />
        </mxCell>
        <mxCell id="ub9YOAP1CGmZ-O2Si56E-16" value="Pedagogy" style="rounded=0;whiteSpace=wrap;html=1;" vertex="1" parent="1">
          <mxGeometry x="160" y="100" width="90" height="30" as="geometry" />
        </mxCell>
        <mxCell id="ub9YOAP1CGmZ-O2Si56E-17" value="Learning objective" style="rounded=0;whiteSpace=wrap;html=1;" vertex="1" parent="1">
          <mxGeometry x="210" y="170" width="100" height="30" as="geometry" />
        </mxCell>
        <mxCell id="ub9YOAP1CGmZ-O2Si56E-18" value="Learning theory" style="rounded=0;whiteSpace=wrap;html=1;" vertex="1" parent="1">
          <mxGeometry x="150" y="220" width="100" height="30" as="geometry" />
        </mxCell>
        <mxCell id="ub9YOAP1CGmZ-O2Si56E-19" value="Skill" style="rounded=0;whiteSpace=wrap;html=1;" vertex="1" parent="1">
          <mxGeometry x="379" y="150" width="70" height="30" as="geometry" />
        </mxCell>
        <mxCell id="ub9YOAP1CGmZ-O2Si56E-20" value="Soft skill" style="rounded=0;whiteSpace=wrap;html=1;" vertex="1" parent="1">
          <mxGeometry x="320" y="90" width="90" height="30" as="geometry" />
        </mxCell>
        <mxCell id="ub9YOAP1CGmZ-O2Si56E-21" value="Hard skill" style="rounded=0;whiteSpace=wrap;html=1;" vertex="1" parent="1">
          <mxGeometry x="505" y="120" width="90" height="30" as="geometry" />
        </mxCell>
        <mxCell id="ub9YOAP1CGmZ-O2Si56E-23" value="Cognitive skill" style="rounded=0;whiteSpace=wrap;html=1;" vertex="1" parent="1">
          <mxGeometry x="425" y="80" width="90" height="30" as="geometry" />
        </mxCell>
        <mxCell id="ub9YOAP1CGmZ-O2Si56E-24" value="Demography" style="rounded=0;whiteSpace=wrap;html=1;" vertex="1" parent="1">
          <mxGeometry x="520" y="180" width="80" height="30" as="geometry" />
        </mxCell>
        <mxCell id="ub9YOAP1CGmZ-O2Si56E-25" value="Personality" style="rounded=0;whiteSpace=wrap;html=1;" vertex="1" parent="1">
          <mxGeometry x="515" y="230" width="80" height="30" as="geometry" />
        </mxCell>
        <mxCell id="ub9YOAP1CGmZ-O2Si56E-26" value="Extends" style="endArrow=block;endSize=16;endFill=0;html=1;exitX=0.5;exitY=0;exitDx=0;exitDy=0;entryX=0.5;entryY=1;entryDx=0;entryDy=0;" edge="1" parent="1" source="ub9YOAP1CGmZ-O2Si56E-18" target="ub9YOAP1CGmZ-O2Si56E-16">
          <mxGeometry width="160" relative="1" as="geometry">
            <mxPoint x="330" y="280" as="sourcePoint" />
            <mxPoint x="490" y="280" as="targetPoint" />
          </mxGeometry>
        </mxCell>
        <mxCell id="ub9YOAP1CGmZ-O2Si56E-27" value="Extends" style="endArrow=block;endSize=16;endFill=0;html=1;exitX=0.5;exitY=0;exitDx=0;exitDy=0;entryX=0.25;entryY=1;entryDx=0;entryDy=0;" edge="1" parent="1" source="ub9YOAP1CGmZ-O2Si56E-15" target="ub9YOAP1CGmZ-O2Si56E-16">
          <mxGeometry width="160" relative="1" as="geometry">
            <mxPoint x="260" y="260" as="sourcePoint" />
            <mxPoint x="160" y="130" as="targetPoint" />
          </mxGeometry>
        </mxCell>
        <mxCell id="ub9YOAP1CGmZ-O2Si56E-28" value="Extends" style="endArrow=block;endSize=16;endFill=0;html=1;exitX=0.5;exitY=0;exitDx=0;exitDy=0;entryX=0.75;entryY=1;entryDx=0;entryDy=0;" edge="1" parent="1" source="ub9YOAP1CGmZ-O2Si56E-17" target="ub9YOAP1CGmZ-O2Si56E-16">
          <mxGeometry width="160" relative="1" as="geometry">
            <mxPoint x="150" y="240" as="sourcePoint" />
            <mxPoint x="170" y="140" as="targetPoint" />
          </mxGeometry>
        </mxCell>
        <mxCell id="ub9YOAP1CGmZ-O2Si56E-30" value="Extends" style="endArrow=block;endSize=16;endFill=0;html=1;exitX=0.5;exitY=1;exitDx=0;exitDy=0;entryX=0.5;entryY=0;entryDx=0;entryDy=0;" edge="1" parent="1" source="ub9YOAP1CGmZ-O2Si56E-20" target="ub9YOAP1CGmZ-O2Si56E-19">
          <mxGeometry width="160" relative="1" as="geometry">
            <mxPoint x="240" y="190" as="sourcePoint" />
            <mxPoint x="187.5" y="140" as="targetPoint" />
          </mxGeometry>
        </mxCell>
        <mxCell id="ub9YOAP1CGmZ-O2Si56E-31" value="Extends" style="endArrow=block;endSize=16;endFill=0;html=1;exitX=0.25;exitY=1;exitDx=0;exitDy=0;entryX=1;entryY=0.5;entryDx=0;entryDy=0;" edge="1" parent="1" source="ub9YOAP1CGmZ-O2Si56E-21" target="ub9YOAP1CGmZ-O2Si56E-19">
          <mxGeometry width="160" relative="1" as="geometry">
            <mxPoint x="469" y="130" as="sourcePoint" />
            <mxPoint x="450" y="165" as="targetPoint" />
          </mxGeometry>
        </mxCell>
        <mxCell id="ub9YOAP1CGmZ-O2Si56E-32" value="Extends" style="endArrow=block;endSize=16;endFill=0;html=1;exitX=0.5;exitY=1;exitDx=0;exitDy=0;entryX=0.75;entryY=0;entryDx=0;entryDy=0;" edge="1" parent="1" source="ub9YOAP1CGmZ-O2Si56E-23" target="ub9YOAP1CGmZ-O2Si56E-19">
          <mxGeometry width="160" relative="1" as="geometry">
            <mxPoint x="469" y="130" as="sourcePoint" />
            <mxPoint x="424" y="160" as="targetPoint" />
          </mxGeometry>
        </mxCell>
        <mxCell id="ub9YOAP1CGmZ-O2Si56E-33" value="" style="endArrow=block;endFill=1;html=1;edgeStyle=orthogonalEdgeStyle;align=left;verticalAlign=top;exitX=1;exitY=0.5;exitDx=0;exitDy=0;entryX=1;entryY=0.5;entryDx=0;entryDy=0;" edge="1" parent="1" source="ub9YOAP1CGmZ-O2Si56E-14" target="ub9YOAP1CGmZ-O2Si56E-16">
          <mxGeometry x="-1" relative="1" as="geometry">
            <mxPoint x="330" y="280" as="sourcePoint" />
            <mxPoint x="490" y="280" as="targetPoint" />
          </mxGeometry>
        </mxCell>
        <mxCell id="ub9YOAP1CGmZ-O2Si56E-35" value="name" style="endArrow=block;endFill=1;html=1;edgeStyle=orthogonalEdgeStyle;align=left;verticalAlign=top;entryX=0;entryY=0.5;entryDx=0;entryDy=0;exitX=0.75;exitY=1;exitDx=0;exitDy=0;" edge="1" parent="1" source="ub9YOAP1CGmZ-O2Si56E-14" target="ub9YOAP1CGmZ-O2Si56E-19">
          <mxGeometry x="-1" relative="1" as="geometry">
            <mxPoint x="330" y="280" as="sourcePoint" />
            <mxPoint x="490" y="280" as="targetPoint" />
          </mxGeometry>
        </mxCell>
        <mxCell id="ub9YOAP1CGmZ-O2Si56E-36" value="1" style="edgeLabel;resizable=0;html=1;align=left;verticalAlign=bottom;" connectable="0" vertex="1" parent="ub9YOAP1CGmZ-O2Si56E-35">
          <mxGeometry x="-1" relative="1" as="geometry" />
        </mxCell>
        <mxCell id="ub9YOAP1CGmZ-O2Si56E-38" value="Extends" style="endArrow=block;endSize=16;endFill=0;html=1;exitX=0.5;exitY=1;exitDx=0;exitDy=0;entryX=1;entryY=0.5;entryDx=0;entryDy=0;" edge="1" parent="1" source="ub9YOAP1CGmZ-O2Si56E-24" target="ub9YOAP1CGmZ-O2Si56E-12">
          <mxGeometry width="160" relative="1" as="geometry">
            <mxPoint x="542.5" y="140" as="sourcePoint" />
            <mxPoint x="459" y="175" as="targetPoint" />
          </mxGeometry>
        </mxCell>
        <mxCell id="ub9YOAP1CGmZ-O2Si56E-40" value="Extends" style="endArrow=block;endSize=16;endFill=0;html=1;exitX=0;exitY=0.5;exitDx=0;exitDy=0;entryX=1;entryY=0.75;entryDx=0;entryDy=0;" edge="1" parent="1" source="ub9YOAP1CGmZ-O2Si56E-25" target="ub9YOAP1CGmZ-O2Si56E-12">
          <mxGeometry width="160" relative="1" as="geometry">
            <mxPoint x="590" y="200" as="sourcePoint" />
            <mxPoint x="530" y="245" as="targetPoint" />
          </mxGeometry>
        </mxCell>
        <mxCell id="ub9YOAP1CGmZ-O2Si56E-41" value="Learning effectiveness" style="rounded=0;whiteSpace=wrap;html=1;" vertex="1" parent="1">
          <mxGeometry x="530" y="280" width="160" height="60" as="geometry" />
        </mxCell>
        <mxCell id="ub9YOAP1CGmZ-O2Si56E-42" value="Game genre" style="rounded=0;whiteSpace=wrap;html=1;" vertex="1" parent="1">
          <mxGeometry x="110" y="365" width="70" height="30" as="geometry" />
        </mxCell>
        <mxCell id="ub9YOAP1CGmZ-O2Si56E-43" value="Game story" style="rounded=0;whiteSpace=wrap;html=1;" vertex="1" parent="1">
          <mxGeometry x="210" y="380" width="70" height="30" as="geometry" />
        </mxCell>
        <mxCell id="ub9YOAP1CGmZ-O2Si56E-44" value="Feedback" style="rounded=0;whiteSpace=wrap;html=1;" vertex="1" parent="1">
          <mxGeometry x="120" y="440" width="70" height="30" as="geometry" />
        </mxCell>
        <mxCell id="ub9YOAP1CGmZ-O2Si56E-45" value="Gameplay" style="rounded=0;whiteSpace=wrap;html=1;" vertex="1" parent="1">
          <mxGeometry x="309" y="370" width="70" height="30" as="geometry" />
        </mxCell>
        <mxCell id="ub9YOAP1CGmZ-O2Si56E-46" value="Rule" style="rounded=0;whiteSpace=wrap;html=1;" vertex="1" parent="1">
          <mxGeometry x="250" y="470" width="70" height="30" as="geometry" />
        </mxCell>
        <mxCell id="ub9YOAP1CGmZ-O2Si56E-47" value="Action" style="rounded=0;whiteSpace=wrap;html=1;" vertex="1" parent="1">
          <mxGeometry x="379" y="470" width="70" height="30" as="geometry" />
        </mxCell>
        <mxCell id="ub9YOAP1CGmZ-O2Si56E-49" value="Reward" style="rounded=0;whiteSpace=wrap;html=1;" vertex="1" parent="1">
          <mxGeometry x="414" y="370" width="70" height="30" as="geometry" />
        </mxCell>
        <mxCell id="ub9YOAP1CGmZ-O2Si56E-50" value="Environment" style="rounded=0;whiteSpace=wrap;html=1;" vertex="1" parent="1">
          <mxGeometry x="530" y="380" width="70" height="30" as="geometry" />
        </mxCell>
        <mxCell id="ub9YOAP1CGmZ-O2Si56E-51" value="Character" style="rounded=0;whiteSpace=wrap;html=1;" vertex="1" parent="1">
          <mxGeometry x="470" y="420" width="70" height="30" as="geometry" />
        </mxCell>
        <mxCell id="ub9YOAP1CGmZ-O2Si56E-53" value="NPC" style="rounded=0;whiteSpace=wrap;html=1;" vertex="1" parent="1">
          <mxGeometry x="470" y="490" width="70" height="30" as="geometry" />
        </mxCell>
        <mxCell id="ub9YOAP1CGmZ-O2Si56E-54" value="Extends" style="endArrow=block;endSize=16;endFill=0;html=1;entryX=0.5;entryY=1;entryDx=0;entryDy=0;exitX=0.5;exitY=0;exitDx=0;exitDy=0;" edge="1" parent="1" source="ub9YOAP1CGmZ-O2Si56E-53" target="ub9YOAP1CGmZ-O2Si56E-51">
          <mxGeometry x="-0.3333" y="5" width="160" relative="1" as="geometry">
            <mxPoint x="400" y="570" as="sourcePoint" />
            <mxPoint x="560" y="570" as="targetPoint" />
            <mxPoint as="offset" />
          </mxGeometry>
        </mxCell>
        <mxCell id="ub9YOAP1CGmZ-O2Si56E-55" value="Extends" style="endArrow=block;endSize=16;endFill=0;html=1;entryX=0.25;entryY=1;entryDx=0;entryDy=0;exitX=0.5;exitY=0;exitDx=0;exitDy=0;" edge="1" parent="1" source="ub9YOAP1CGmZ-O2Si56E-46" target="ub9YOAP1CGmZ-O2Si56E-45">
          <mxGeometry x="-0.3333" y="5" width="160" relative="1" as="geometry">
            <mxPoint x="515" y="610" as="sourcePoint" />
            <mxPoint x="515" y="550" as="targetPoint" />
            <mxPoint as="offset" />
          </mxGeometry>
        </mxCell>
        <mxCell id="ub9YOAP1CGmZ-O2Si56E-56" value="Extends" style="endArrow=block;endSize=16;endFill=0;html=1;entryX=0.75;entryY=1;entryDx=0;entryDy=0;exitX=0.25;exitY=0;exitDx=0;exitDy=0;" edge="1" parent="1" source="ub9YOAP1CGmZ-O2Si56E-47" target="ub9YOAP1CGmZ-O2Si56E-45">
          <mxGeometry x="-0.3333" y="5" width="160" relative="1" as="geometry">
            <mxPoint x="285" y="520" as="sourcePoint" />
            <mxPoint x="277.5" y="480" as="targetPoint" />
            <mxPoint as="offset" />
          </mxGeometry>
        </mxCell>
        <mxCell id="ub9YOAP1CGmZ-O2Si56E-57" value="Activity" style="rounded=0;whiteSpace=wrap;html=1;" vertex="1" parent="1">
          <mxGeometry x="720" y="200" width="80" height="30" as="geometry" />
        </mxCell>
        <mxCell id="ub9YOAP1CGmZ-O2Si56E-58" value="Scenario" style="rounded=0;whiteSpace=wrap;html=1;" vertex="1" parent="1">
          <mxGeometry x="720" y="370" width="80" height="30" as="geometry" />
        </mxCell>
        <mxCell id="ub9YOAP1CGmZ-O2Si56E-59" value="Goal" style="rounded=0;whiteSpace=wrap;html=1;" vertex="1" parent="1">
          <mxGeometry x="720" y="470" width="80" height="30" as="geometry" />
        </mxCell>
        <mxCell id="ub9YOAP1CGmZ-O2Si56E-61" value="" style="endArrow=diamondThin;endFill=0;endSize=24;html=1;exitX=0.425;exitY=1;exitDx=0;exitDy=0;exitPerimeter=0;entryX=0.5;entryY=0;entryDx=0;entryDy=0;" edge="1" parent="1" source="ub9YOAP1CGmZ-O2Si56E-58" target="ub9YOAP1CGmZ-O2Si56E-59">
          <mxGeometry width="160" relative="1" as="geometry">
            <mxPoint x="400" y="330" as="sourcePoint" />
            <mxPoint x="560" y="330" as="targetPoint" />
          </mxGeometry>
        </mxCell>
        <mxCell id="ub9YOAP1CGmZ-O2Si56E-62" value="" style="endArrow=diamondThin;endFill=1;endSize=24;html=1;exitX=0.5;exitY=1;exitDx=0;exitDy=0;entryX=0.5;entryY=0;entryDx=0;entryDy=0;" edge="1" parent="1" source="ub9YOAP1CGmZ-O2Si56E-57" target="ub9YOAP1CGmZ-O2Si56E-58">
          <mxGeometry width="160" relative="1" as="geometry">
            <mxPoint x="400" y="330" as="sourcePoint" />
            <mxPoint x="560" y="330" as="targetPoint" />
          </mxGeometry>
        </mxCell>
        <mxCell id="ub9YOAP1CGmZ-O2Si56E-63" value="Learning object(LO)" style="rounded=0;whiteSpace=wrap;html=1;" vertex="1" parent="1">
          <mxGeometry x="830" y="250" width="80" height="30" as="geometry" />
        </mxCell>
        <mxCell id="ub9YOAP1CGmZ-O2Si56E-65" value="Composite LO" style="rounded=0;whiteSpace=wrap;html=1;" vertex="1" parent="1">
          <mxGeometry x="840" y="310" width="80" height="30" as="geometry" />
        </mxCell>
        <mxCell id="ub9YOAP1CGmZ-O2Si56E-67" value="Atomic LO" style="rounded=0;whiteSpace=wrap;html=1;" vertex="1" parent="1">
          <mxGeometry x="827" y="170" width="80" height="30" as="geometry" />
        </mxCell>
        <mxCell id="ub9YOAP1CGmZ-O2Si56E-69" value="Action" style="rounded=0;whiteSpace=wrap;html=1;" vertex="1" parent="1">
          <mxGeometry x="680" y="70" width="80" height="30" as="geometry" />
        </mxCell>
        <mxCell id="ub9YOAP1CGmZ-O2Si56E-72" value="Event" style="rounded=0;whiteSpace=wrap;html=1;" vertex="1" parent="1">
          <mxGeometry x="630" y="140" width="80" height="30" as="geometry" />
        </mxCell>
        <mxCell id="ub9YOAP1CGmZ-O2Si56E-73" value="Decision" style="rounded=0;whiteSpace=wrap;html=1;" vertex="1" parent="1">
          <mxGeometry x="750" y="80" width="80" height="30" as="geometry" />
        </mxCell>
        <mxCell id="ub9YOAP1CGmZ-O2Si56E-74" value="Extends" style="endArrow=block;endSize=16;endFill=0;html=1;exitX=0.5;exitY=1;exitDx=0;exitDy=0;" edge="1" parent="1" source="ub9YOAP1CGmZ-O2Si56E-69" target="ub9YOAP1CGmZ-O2Si56E-57">
          <mxGeometry width="160" relative="1" as="geometry">
            <mxPoint x="720" y="70" as="sourcePoint" />
            <mxPoint x="720" y="150" as="targetPoint" />
          </mxGeometry>
        </mxCell>
        <mxCell id="ub9YOAP1CGmZ-O2Si56E-75" value="Extends" style="endArrow=block;endSize=16;endFill=0;html=1;exitX=0.5;exitY=1;exitDx=0;exitDy=0;entryX=0.75;entryY=0;entryDx=0;entryDy=0;" edge="1" parent="1" source="ub9YOAP1CGmZ-O2Si56E-73" target="ub9YOAP1CGmZ-O2Si56E-57">
          <mxGeometry width="160" relative="1" as="geometry">
            <mxPoint x="730" y="80" as="sourcePoint" />
            <mxPoint x="730" y="160" as="targetPoint" />
          </mxGeometry>
        </mxCell>
        <mxCell id="ub9YOAP1CGmZ-O2Si56E-76" value="Extends" style="endArrow=block;endSize=16;endFill=0;html=1;exitX=0.25;exitY=1;exitDx=0;exitDy=0;entryX=0;entryY=0.5;entryDx=0;entryDy=0;" edge="1" parent="1" source="ub9YOAP1CGmZ-O2Si56E-72" target="ub9YOAP1CGmZ-O2Si56E-57">
          <mxGeometry width="160" relative="1" as="geometry">
            <mxPoint x="730" y="80" as="sourcePoint" />
            <mxPoint x="700" y="150" as="targetPoint" />
          </mxGeometry>
        </mxCell>
        <mxCell id="ub9YOAP1CGmZ-O2Si56E-77" value="" style="endArrow=block;dashed=1;endFill=0;endSize=12;html=1;exitX=0.413;exitY=1.033;exitDx=0;exitDy=0;exitPerimeter=0;entryX=1;entryY=0.5;entryDx=0;entryDy=0;" edge="1" parent="1" source="ub9YOAP1CGmZ-O2Si56E-67" target="ub9YOAP1CGmZ-O2Si56E-57">
          <mxGeometry width="160" relative="1" as="geometry">
            <mxPoint x="430" y="230" as="sourcePoint" />
            <mxPoint x="590" y="230" as="targetPoint" />
          </mxGeometry>
        </mxCell>
        <mxCell id="ub9YOAP1CGmZ-O2Si56E-78" value="Extends" style="endArrow=block;endSize=16;endFill=0;html=1;exitX=0.5;exitY=1;exitDx=0;exitDy=0;entryX=0.5;entryY=0;entryDx=0;entryDy=0;" edge="1" parent="1" source="ub9YOAP1CGmZ-O2Si56E-67" target="ub9YOAP1CGmZ-O2Si56E-63">
          <mxGeometry width="160" relative="1" as="geometry">
            <mxPoint x="800" y="120" as="sourcePoint" />
            <mxPoint x="750" y="160" as="targetPoint" />
          </mxGeometry>
        </mxCell>
        <mxCell id="ub9YOAP1CGmZ-O2Si56E-79" value="Extends" style="endArrow=block;endSize=16;endFill=0;html=1;exitX=0.5;exitY=0;exitDx=0;exitDy=0;entryX=0.5;entryY=1;entryDx=0;entryDy=0;" edge="1" parent="1" source="ub9YOAP1CGmZ-O2Si56E-65" target="ub9YOAP1CGmZ-O2Si56E-63">
          <mxGeometry width="160" relative="1" as="geometry">
            <mxPoint x="910" y="90" as="sourcePoint" />
            <mxPoint x="890" y="160" as="targetPoint" />
          </mxGeometry>
        </mxCell>
        <mxCell id="ub9YOAP1CGmZ-O2Si56E-80" value="Objective" style="rounded=0;whiteSpace=wrap;html=1;" vertex="1" parent="1">
          <mxGeometry x="940" y="160" width="80" height="30" as="geometry" />
        </mxCell>
        <mxCell id="ub9YOAP1CGmZ-O2Si56E-81" value="Topic" style="rounded=0;whiteSpace=wrap;html=1;" vertex="1" parent="1">
          <mxGeometry x="910" y="360" width="80" height="30" as="geometry" />
        </mxCell>
        <mxCell id="ub9YOAP1CGmZ-O2Si56E-82" value="Lesson" style="rounded=0;whiteSpace=wrap;html=1;" vertex="1" parent="1">
          <mxGeometry x="910" y="420" width="80" height="30" as="geometry" />
        </mxCell>
        <mxCell id="ub9YOAP1CGmZ-O2Si56E-83" value="Subject" style="rounded=0;whiteSpace=wrap;html=1;" vertex="1" parent="1">
          <mxGeometry x="900" y="470" width="80" height="30" as="geometry" />
        </mxCell>
        <mxCell id="ub9YOAP1CGmZ-O2Si56E-84" value="" style="endArrow=block;dashed=1;endFill=0;endSize=12;html=1;exitX=0;exitY=0.5;exitDx=0;exitDy=0;entryX=1;entryY=0.5;entryDx=0;entryDy=0;" edge="1" parent="1" source="ub9YOAP1CGmZ-O2Si56E-83" target="ub9YOAP1CGmZ-O2Si56E-59">
          <mxGeometry width="160" relative="1" as="geometry">
            <mxPoint x="903.04" y="90.99000000000001" as="sourcePoint" />
            <mxPoint x="770" y="175" as="targetPoint" />
          </mxGeometry>
        </mxCell>
        <mxCell id="ub9YOAP1CGmZ-O2Si56E-85" value="" style="endArrow=block;dashed=1;endFill=0;endSize=12;html=1;exitX=0;exitY=0.75;exitDx=0;exitDy=0;entryX=1;entryY=0.5;entryDx=0;entryDy=0;" edge="1" parent="1" source="ub9YOAP1CGmZ-O2Si56E-82" target="ub9YOAP1CGmZ-O2Si56E-58">
          <mxGeometry width="160" relative="1" as="geometry">
            <mxPoint x="1000" y="355" as="sourcePoint" />
            <mxPoint x="760" y="365" as="targetPoint" />
          </mxGeometry>
        </mxCell>
        <mxCell id="ub9YOAP1CGmZ-O2Si56E-87" value="" style="endArrow=block;dashed=1;endFill=0;endSize=12;html=1;exitX=0;exitY=0.5;exitDx=0;exitDy=0;entryX=1;entryY=0.5;entryDx=0;entryDy=0;" edge="1" parent="1" source="ub9YOAP1CGmZ-O2Si56E-80" target="ub9YOAP1CGmZ-O2Si56E-67">
          <mxGeometry width="160" relative="1" as="geometry">
            <mxPoint x="990" y="175" as="sourcePoint" />
            <mxPoint x="770" y="260" as="targetPoint" />
          </mxGeometry>
        </mxCell>
        <mxCell id="ub9YOAP1CGmZ-O2Si56E-88" value="Unit" style="rounded=0;whiteSpace=wrap;html=1;" vertex="1" parent="1">
          <mxGeometry x="930" y="210" width="80" height="30" as="geometry" />
        </mxCell>
        <mxCell id="ub9YOAP1CGmZ-O2Si56E-89" value="" style="endArrow=block;dashed=1;endFill=0;endSize=12;html=1;exitX=0;exitY=0.5;exitDx=0;exitDy=0;entryX=0.75;entryY=1;entryDx=0;entryDy=0;" edge="1" parent="1" source="ub9YOAP1CGmZ-O2Si56E-88" target="ub9YOAP1CGmZ-O2Si56E-67">
          <mxGeometry width="160" relative="1" as="geometry">
            <mxPoint x="1000" y="75" as="sourcePoint" />
            <mxPoint x="950" y="75" as="targetPoint" />
          </mxGeometry>
        </mxCell>
        <mxCell id="ub9YOAP1CGmZ-O2Si56E-94" value="" style="endArrow=block;dashed=1;endFill=0;endSize=12;html=1;exitX=0;exitY=0.5;exitDx=0;exitDy=0;entryX=1;entryY=0.25;entryDx=0;entryDy=0;" edge="1" parent="1" source="ub9YOAP1CGmZ-O2Si56E-81" target="ub9YOAP1CGmZ-O2Si56E-58">
          <mxGeometry width="160" relative="1" as="geometry">
            <mxPoint x="920" y="452.5" as="sourcePoint" />
            <mxPoint x="810" y="395" as="targetPoint" />
          </mxGeometry>
        </mxCell>
      </root>
    </mxGraphModel>
  </diagram>
</mxfile>
